<svg width="24" height="24" viewBox="0 0 24 24" fill="none" xmlns="http://www.w3.org/2000/svg">
<path d="M12.0001 11.2162C13.1047 11.2162 14.0001 10.3208 14.0001 9.21619C14.0001 8.11162 13.1047 7.21619 12.0001 7.21619C10.8956 7.21619 10.0001 8.11162 10.0001 9.21619C10.0001 10.3208 10.8956 11.2162 12.0001 11.2162Z" fill="currentcolor"/>
<path fill-rule="evenodd" clip-rule="evenodd" d="M11.4436 21.0018L12.0001 21.3741L12.5574 21.0014L12.5593 21.0001L12.5648 20.9963L12.5827 20.9842C12.5977 20.9739 12.6186 20.9596 12.645 20.9411C12.6978 20.9042 12.7727 20.8509 12.8667 20.782C13.0546 20.6442 13.319 20.4432 13.6345 20.1846C14.2641 19.6684 15.1047 18.916 15.9479 17.9699C17.6116 16.1032 19.4026 13.3502 19.4026 10.0861C19.4026 6.08294 15.9975 2.62549 11.9905 2.62549C7.97966 2.62549 4.59766 6.08684 4.59766 10.0861C4.59766 13.3502 6.38867 16.1032 8.05236 17.9699C8.89557 18.916 9.73613 19.6684 10.3657 20.1846C10.6812 20.4432 10.9456 20.6442 11.1335 20.782C11.2275 20.8509 11.3025 20.9042 11.3553 20.9411C11.3817 20.9596 11.4025 20.9739 11.4175 20.9842L11.4354 20.9963L11.441 21.0001L11.4436 21.0018ZM6.59766 10.0861C6.59766 7.16675 9.10872 4.62549 11.9905 4.62549C14.8761 4.62549 17.4026 7.17065 17.4026 10.0861C17.4026 12.6246 15.9924 14.9141 14.4548 16.6392C13.6974 17.489 12.9374 18.1699 12.3665 18.6379C12.2327 18.7476 12.1097 18.8453 12.0001 18.9303C11.8905 18.8453 11.7675 18.7476 11.6338 18.6379C11.0629 18.1699 10.3028 17.489 9.54542 16.6392C8.00788 14.9141 6.59766 12.6246 6.59766 10.0861Z" fill="currentcolor"/>
<path d="M14.0001 9.21619C14.0001 10.3208 13.1047 11.2162 12.0001 11.2162C10.8956 11.2162 10.0001 10.3208 10.0001 9.21619C10.0001 8.11162 10.8956 7.21619 12.0001 7.21619C13.1047 7.21619 14.0001 8.11162 14.0001 9.21619Z" fill="currentcolor"/>
</svg>
