<svg width="24" height="24" viewBox="0 0 24 24" fill="none" xmlns="http://www.w3.org/2000/svg">
<path fill-rule="evenodd" clip-rule="evenodd" d="M11.4631 21.0018L12.0197 21.3741L12.5769 21.0014L12.5788 21.0001L12.5844 20.9963L12.6023 20.9842C12.6172 20.9739 12.6381 20.9596 12.6645 20.9411C12.7173 20.9042 12.7923 20.8509 12.8863 20.782C13.0741 20.6442 13.3386 20.4432 13.6541 20.1846C14.2836 19.6684 15.1242 18.916 15.9674 17.9699C17.6311 16.1032 19.4221 13.3502 19.4221 10.0861C19.4221 6.08294 16.017 2.62549 12.01 2.62549C7.99919 2.62549 4.61719 6.08684 4.61719 10.0861C4.61719 13.3502 6.4082 16.1032 8.07189 17.9699C8.9151 18.916 9.75566 19.6684 10.3852 20.1846C10.7007 20.4432 10.9652 20.6442 11.153 20.782C11.247 20.8509 11.322 20.9042 11.3748 20.9411C11.4012 20.9596 11.4221 20.9739 11.437 20.9842L11.4549 20.9963L11.4605 21.0001L11.4631 21.0018ZM12.0195 10.5103C13.1241 10.5103 14.0195 9.61482 14.0195 8.51025C14.0195 7.40568 13.1241 6.51025 12.0195 6.51025C10.915 6.51025 10.0195 7.40568 10.0195 8.51025C10.0195 9.61482 10.915 10.5103 12.0195 10.5103Z" fill="currentcolor"/>
</svg>
