<svg width="24" height="24" viewBox="0 0 24 24" fill="none" xmlns="http://www.w3.org/2000/svg">
<path d="M13.9115 9.92434C13.9115 10.98 13.0557 11.8358 12.0001 11.8358C10.9444 11.8358 10.0887 10.98 10.0887 9.92434C10.0887 8.86869 10.9444 8.01291 12.0001 8.01291C13.0557 8.01291 13.9115 8.86869 13.9115 9.92434Z" fill="currentcolor"/>
<path fill-rule="evenodd" clip-rule="evenodd" d="M5.60083 10.1292C5.60083 6.595 8.46591 3.72998 12.0001 3.72998C15.5343 3.72998 18.3993 6.59501 18.3993 10.1292C18.3993 12.986 16.872 15.4394 15.4641 17.1085C14.7491 17.9561 14.0365 18.6351 13.5026 19.1028C13.235 19.3372 13.0105 19.52 12.8507 19.6458C12.7708 19.7087 12.7069 19.7575 12.6618 19.7914C12.6392 19.8084 12.6213 19.8217 12.6084 19.8312L12.5928 19.8426L12.5879 19.8462L12.5862 19.8474C12.5862 19.8474 12.585 19.8483 12.0001 19.0372C11.4152 19.8483 11.4147 19.8479 11.4147 19.8479L11.4123 19.8462L11.4074 19.8426L11.3918 19.8312C11.3789 19.8217 11.361 19.8084 11.3384 19.7914C11.2933 19.7575 11.2294 19.7087 11.1494 19.6458C10.9897 19.52 10.7652 19.3372 10.4976 19.1028C9.96367 18.6351 9.25104 17.9561 8.5361 17.1085C7.12814 15.4395 5.60083 12.986 5.60083 10.1292ZM12.0001 19.0372L11.4147 19.8479L12.0001 20.27L12.585 19.8483L12.0001 19.0372ZM12.0001 17.7576C12.0584 17.7081 12.1201 17.655 12.1848 17.5982C12.6633 17.1792 13.3005 16.5716 13.9353 15.8189C15.227 14.2877 16.3993 12.2872 16.3993 10.1292C16.3993 7.69958 14.4297 5.72998 12.0001 5.72998C9.57046 5.72998 7.60083 7.69959 7.60083 10.1292C7.60083 12.2872 8.77315 14.2877 10.0648 15.8189C10.6997 16.5715 11.3369 17.1792 11.8153 17.5982C11.8801 17.655 11.9418 17.7081 12.0001 17.7576Z" fill="currentcolor"/>
</svg>
