<svg width="24" height="24" viewBox="0 0 24 24" fill="none" xmlns="http://www.w3.org/2000/svg">
<path fill-rule="evenodd" clip-rule="evenodd" d="M13.7467 18.1766C12.9482 19.7737 12.2151 20 12 20C11.7849 20 11.0518 19.7737 10.2533 18.1766C9.94677 17.5635 9.6788 16.8293 9.4702 16H14.5298C14.3212 16.8293 14.0532 17.5635 13.7467 18.1766ZM14.8885 14H9.11146C9.03919 13.3641 9 12.6949 9 12C9 11.3051 9.03919 10.6359 9.11146 10H14.8885C14.9608 10.6359 15 11.3051 15 12C15 12.6949 14.9608 13.3641 14.8885 14ZM16.584 16C16.3182 17.2166 15.9348 18.307 15.4627 19.2138C16.9162 18.5149 18.1259 17.3895 18.9297 16H16.584ZM19.748 14H16.9C16.9656 13.3538 17 12.6849 17 12C17 11.3151 16.9656 10.6462 16.9 10H19.748C19.9125 10.6392 20 11.3094 20 12C20 12.6906 19.9125 13.3608 19.748 14ZM18.9297 8C18.1259 6.61047 16.9162 5.48514 15.4627 4.78617C15.9348 5.69296 16.3182 6.78337 16.584 8H18.9297ZM14.5298 8C14.3212 7.17074 14.0532 6.43647 13.7467 5.82336C12.9482 4.22632 12.2151 4 12 4C11.7849 4 11.0518 4.22632 10.2533 5.82336C9.94677 6.43647 9.6788 7.17074 9.4702 8H14.5298ZM7.41604 8C7.68183 6.78337 8.06515 5.69296 8.53731 4.78617C7.08379 5.48514 5.87406 6.61047 5.07026 8H7.41604ZM4.25203 10C4.08751 10.6392 4 11.3094 4 12C4 12.6906 4.08751 13.3608 4.25203 14H7.10002C7.03443 13.3538 7 12.6849 7 12C7 11.3151 7.03443 10.6462 7.10002 10H4.25203ZM7.41605 16H5.07026C5.87406 17.3895 7.0838 18.5149 8.53731 19.2138C8.06515 18.307 7.68183 17.2166 7.41605 16ZM22 12C22 6.47715 17.5228 2 12 2C6.47715 2 2 6.47715 2 12C2 17.5228 6.47715 22 12 22C17.5228 22 22 17.5228 22 12Z" fill="currentcolor"/>
</svg>
