<svg width="24" height="24" viewBox="0 0 24 24" fill="none" xmlns="http://www.w3.org/2000/svg">
<path fill-rule="evenodd" clip-rule="evenodd" d="M8.85342 15.1454C10.6412 16.9332 13.0046 18.2102 14.8383 19.0121C16.0653 19.5486 17.5189 19.2079 18.5575 18.1693L19.6662 17.0606L16.299 14.7709L15.6181 15.4518C15.1845 15.8855 14.5083 16.1477 13.8027 15.9451C13.018 15.7198 11.5862 15.1508 10.2171 13.7817C8.84802 12.4126 8.27907 10.9809 8.05377 10.1962C7.85117 9.49052 8.11339 8.81441 8.54703 8.38076L9.22793 7.69986L6.93825 4.33268L5.82959 5.44135C4.79099 6.47995 4.45025 7.93353 4.9868 9.16054C5.78865 10.9943 7.06562 13.3576 8.85342 15.1454ZM14.037 20.8445C12.1047 19.9996 9.48176 18.6022 7.43921 16.5597C5.39666 14.5171 3.99928 11.8941 3.15433 9.96183C2.23759 7.86536 2.88906 5.55345 4.41537 4.02714L6.37855 2.06396L7.91258 2.20876L11.3471 7.25952L11.2273 8.52894L10.0074 9.74879C10.1884 10.3292 10.6269 11.3631 11.6313 12.3675C12.6358 13.3719 13.6697 13.8105 14.2501 13.9914L15.4699 12.7716L16.7393 12.6518L21.7901 16.0863L21.9349 17.6203L19.9717 19.5835C18.4454 21.1098 16.1335 21.7613 14.037 20.8445Z" fill="currentcolor"/>
</svg>
