<svg width="24" height="24" viewBox="0 0 24 24" fill="none" xmlns="http://www.w3.org/2000/svg">
<path d="M23 5.5C23 6.88071 21.8807 8 20.5 8C19.1193 8 18 6.88071 18 5.5C18 4.11929 19.1193 3 20.5 3C21.8807 3 23 4.11929 23 5.5Z" fill="#0A8A00"/>
<path fill-rule="evenodd" clip-rule="evenodd" d="M16 6H5C4.44772 6 4 6.44772 4 7V14C4 14.5523 4.44772 15 5 15H7H8V16V18.5845L11.2887 15.2932L11.5817 15H11.9961H19C19.5523 15 20 14.5523 20 14V10H22V14C22 15.6569 20.6569 17 19 17H12.4105L8.41366 21H6V17H5C3.34315 17 2 15.6569 2 14V7C2 5.34315 3.34315 4 5 4H16V6Z" fill="currentcolor"/>
</svg>
