<svg width="24" height="24" viewBox="0 0 24 24" fill="none" xmlns="http://www.w3.org/2000/svg">
<path fill-rule="evenodd" clip-rule="evenodd" d="M19.9994 4.99757V3.99756L18.9994 3.99758L14.0025 3.99767L14.0025 5.99766L16.5852 5.99761L11.2892 11.2938L12.7035 12.708L17.9994 7.41186L17.9994 10.0005L19.9994 10.0005V4.99757ZM4.00244 20.0007V19.0007V15.0007V9.00073V5.0007V4.0007L5.00244 4.0007L8.19678 4.0007L12.0024 4.0007L12.0024 6.0007H8.19678L6.00244 6.0007L6.00244 9.00073L6.00244 15.0007V18.0007H8.19678L14.0024 18.0007H18.0024L18.0024 12.0007H20.0024V19.0007V20.0007H19.0024H14.0024H8.19678H5.00244H4.00244Z" fill="currentcolor"/>
</svg>
