<svg width="24" height="24" viewBox="0 0 24 24" fill="none" xmlns="http://www.w3.org/2000/svg">
<path fill-rule="evenodd" clip-rule="evenodd" d="M4 11.9981V4.99805V3.99805H5H8.19434H12V5.99805L8.19434 5.99805L6 5.99805V11.9981H4ZM18 17.9981H12V19.9981H19H20V18.9981V11.9981H18L18 17.9981ZM18 7.41456L14.694 10.7206L13.2798 9.30644L16.5829 6.00322L14.003 6.00327L14.003 4.00328L18.9999 4.00319L20 4.00317L20 5.00318V10.0061H18V7.41456ZM4.00319 20.0001L4.00319 19.0001L4.00319 13.9971L6.00319 13.9971V16.5858L9.29283 13.2961L10.7071 14.7102L7.41744 18L10.0001 18L10.0001 20L5.00321 20.0001L4.00319 20.0001Z" fill="currentcolor"/>
</svg>
