<svg width="24" height="24" viewBox="0 0 24 24" fill="none" xmlns="http://www.w3.org/2000/svg">
<path fill-rule="evenodd" clip-rule="evenodd" d="M17.2554 5C16.565 5 16.0054 5.55964 16.0054 6.25C16.0054 6.94036 16.565 7.5 17.2554 7.5C17.9457 7.5 18.5054 6.94036 18.5054 6.25C18.5054 5.55964 17.9457 5 17.2554 5ZM14.0054 6.25C14.0054 4.45507 15.4604 3 17.2554 3C19.0503 3 20.5054 4.45507 20.5054 6.25C20.5054 8.04493 19.0503 9.5 17.2554 9.5C16.3271 9.5 15.4898 9.11085 14.8976 8.4868L9.92511 11.3282C9.97067 11.545 9.99463 11.7697 9.99463 12C9.99463 12.2303 9.97067 12.455 9.92511 12.6718L14.8976 15.5132C15.4898 14.8891 16.3271 14.5 17.2554 14.5C19.0503 14.5 20.5054 15.9551 20.5054 17.75C20.5054 19.5449 19.0503 21 17.2554 21C15.4604 21 14.0054 19.5449 14.0054 17.75C14.0054 17.6052 14.0148 17.4626 14.0332 17.3228L8.92926 14.4063C8.35217 14.9305 7.58571 15.25 6.74463 15.25C4.9497 15.25 3.49463 13.7949 3.49463 12C3.49463 10.2051 4.9497 8.75 6.74463 8.75C7.58571 8.75 8.35217 9.0695 8.92926 9.59375L14.0332 6.67721C14.0148 6.53741 14.0054 6.39481 14.0054 6.25ZM6.74463 10.75C6.05427 10.75 5.49463 11.3096 5.49463 12C5.49463 12.6904 6.05427 13.25 6.74463 13.25C7.43498 13.25 7.99463 12.6904 7.99463 12C7.99463 11.3096 7.43499 10.75 6.74463 10.75ZM17.2554 16.5C16.565 16.5 16.0054 17.0596 16.0054 17.75C16.0054 18.4404 16.565 19 17.2554 19C17.9457 19 18.5054 18.4404 18.5054 17.75C18.5054 17.0596 17.9457 16.5 17.2554 16.5Z" fill="currentcolor"/>
</svg>
