<svg width="24" height="24" viewBox="0 0 24 24">
	<path d="M8.23807 8.88828C7.33118 8.88828 6.63798 9.21299 6.15848 9.8624C5.67897 10.5118 5.43922 11.401 5.43922 12.53C5.43922 13.6689 5.65812 14.5531 6.09593 15.1826C6.54417 15.802 7.25821 16.1117 8.23807 16.1117C8.69673 16.1117 9.15017 16.0618 9.5984 15.9619C10.0571 15.8619 10.5522 15.7221 11.0838 15.5422V17.4455C10.5939 17.6353 10.1092 17.7752 9.62968 17.8651C9.15017 17.955 8.61333 18 8.01916 18C6.87252 18 5.92394 17.7752 5.17341 17.3256C4.4333 16.866 3.88604 16.2266 3.53163 15.4074C3.17721 14.5781 3 13.614 3 12.515C3 11.436 3.20327 10.4818 3.60981 9.65259C4.01634 8.82334 4.6053 8.17393 5.37668 7.70436C6.15848 7.23479 7.11228 7 8.23807 7C8.79054 7 9.34302 7.06994 9.89549 7.20981C10.4584 7.33969 10.9952 7.51953 11.506 7.74932L10.7398 9.59264C10.3229 9.40282 9.9007 9.23797 9.47332 9.09809C9.05635 8.95822 8.64461 8.88828 8.23807 8.88828Z" fill="currentcolor"/>
	<path d="M17.7321 8.88828C16.8252 8.88828 16.132 9.21299 15.6525 9.8624C15.173 10.5118 14.9332 11.401 14.9332 12.53C14.9332 13.6689 15.1521 14.5531 15.5899 15.1826C16.0382 15.802 16.7522 16.1117 17.7321 16.1117C18.1907 16.1117 18.6442 16.0618 19.0924 15.9619C19.5511 15.8619 20.0462 15.7221 20.5778 15.5422V17.4455C20.0879 17.6353 19.6032 17.7752 19.1237 17.8651C18.6442 17.955 18.1073 18 17.5132 18C16.3665 18 15.4179 17.7752 14.6674 17.3256C13.9273 16.866 13.38 16.2266 13.0256 15.4074C12.6712 14.5781 12.494 13.614 12.494 12.515C12.494 11.436 12.6973 10.4818 13.1038 9.65259C13.5103 8.82334 14.0993 8.17393 14.8707 7.70436C15.6525 7.23479 16.6063 7 17.7321 7C18.2845 7 18.837 7.06994 19.3895 7.20981C19.9524 7.33969 20.4892 7.51953 21 7.74932L20.2338 9.59264C19.8169 9.40282 19.3947 9.23797 18.9673 9.09809C18.5504 8.95822 18.1386 8.88828 17.7321 8.88828Z" fill="currentcolor"/>
</svg>
	