<svg width="24" height="24" viewBox="0 0 24 24">
	<path d="M2.39785 2.41406L21.5825 21.6047L20.1847 23.0012L12 14.814V18.9962L8 15.0001H4V9.00011H6.18787L1 3.81064L2.39785 2.41406Z" fill="currentcolor"/>
	<path d="M9.90429 7.09396L12 9.19032V4.9962L9.90429 7.09396Z" fill="currentcolor"/>
	<path d="M15.1563 12.3476L16.8234 14.0152C17.5935 11.8597 17.0371 9.37648 15.4142 7.75357L14 9.16778C14.8311 9.99893 15.2581 11.1782 15.1563 12.3476Z" fill="currentcolor"/>
	<path d="M17.5937 14.7857L19.0882 16.2808C20.9608 12.8281 20.3192 8.41591 17.5355 5.63225L16.1213 7.04646C18.1323 9.05743 18.7251 12.1845 17.5937 14.7857Z" fill="currentcolor"/>
</svg>
	