<svg width="24" height="24" viewBox="0 0 24 24" fill="none" xmlns="http://www.w3.org/2000/svg">
<path fill-rule="evenodd" clip-rule="evenodd" d="M4 8.99609V14.9961H8L12 18.9961V4.99609L8 8.99609H4ZM14 9.16767C14.7239 9.89153 15.1716 10.8915 15.1716 11.9961C15.1716 13.1007 14.7239 14.1007 14 14.8245L15.4142 16.2387C16.5 15.153 17.1716 13.653 17.1716 11.9961C17.1716 10.3392 16.5 8.83925 15.4142 7.75346L14 9.16767ZM20.1716 11.9961C20.1716 14.4814 19.1642 16.7314 17.5355 18.3601L16.1213 16.9458C17.3881 15.6791 18.1716 13.9291 18.1716 11.9961C18.1716 10.0631 17.3881 8.3131 16.1213 7.04635L17.5355 5.63214C19.1642 7.26082 20.1716 9.51082 20.1716 11.9961Z" fill="currentcolor"/>
</svg>
