<svg width="24" height="24" viewBox="0 0 24 24" fill="none" xmlns="http://www.w3.org/2000/svg">
<path fill-rule="evenodd" clip-rule="evenodd" d="M2.99995 3L1.62109 4.37886L3 5.75777V20H17.2421L19.2987 22.0566L20.6776 20.6777L2.99995 3ZM5 18V7.75778L9.19686 11.9547L6.5 16H13.2421L15.2421 18H5Z" fill="currentcolor"/>
<path d="M19 16.2423V5.99995H8.75765L6.75766 3.99995H21V18.2423L19 16.2423Z" fill="currentcolor"/>
<path d="M15.5 11C14.6716 11 14 10.3284 14 9.49995C14 8.67153 14.6716 7.99995 15.5 7.99995C16.3284 7.99995 17 8.67153 17 9.49995C17 10.3284 16.3284 11 15.5 11Z" fill="currentcolor"/>
</svg>
