<svg width="24" height="24" viewBox="0 0 24 24" fill="none" xmlns="http://www.w3.org/2000/svg">
<path d="M22 17.5C22 18.8807 20.8807 20 19.5 20C18.1193 20 17 18.8807 17 17.5C17 16.1193 18.1193 15 19.5 15C20.8807 15 22 16.1193 22 17.5Z" fill="currentcolor"/>
<path fill-rule="evenodd" clip-rule="evenodd" d="M5 8C5.55228 8 6 7.55228 6 7C6 6.44772 5.55228 6 5 6C4.44772 6 4 6.44772 4 7C4 7.55228 4.44772 8 5 8ZM20 8H8V6H20V8ZM19.5 13H8V11H20V13H19.5ZM15.2561 16C15.0902 16.4692 15 16.974 15 17.5C15 17.669 15.0093 17.8358 15.0275 18H8V16H15.2561ZM6 12C6 12.5523 5.55228 13 5 13C4.44772 13 4 12.5523 4 12C4 11.4477 4.44772 11 5 11C5.55228 11 6 11.4477 6 12ZM5 18C5.55228 18 6 17.5523 6 17C6 16.4477 5.55228 16 5 16C4.44772 16 4 16.4477 4 17C4 17.5523 4.44772 18 5 18Z" fill="currentcolor"/>
</svg>
