<svg width="24" height="24" viewBox="0 0 24 24" fill="none" xmlns="http://www.w3.org/2000/svg">
<path d="M10 3H5C3.89543 3 3 3.89543 3 5V10H5V6C5 5.44772 5.44772 5 6 5H10V3Z" fill="currentcolor"/>
<path d="M14 5H18C18.5523 5 19 5.44772 19 6V10H21V5C21 3.89543 20.1046 3 19 3H14V5Z" fill="currentcolor"/>
<path d="M3 14H5V18C5 18.5523 5.44772 19 6 19H10V21H5C3.89543 21 3 20.1046 3 19V14Z" fill="currentcolor"/>
<path d="M19 14H21V19C21 20.1046 20.1046 21 19 21H14V19H18C18.5523 19 19 18.5523 19 18V14Z" fill="currentcolor"/>
</svg>
