<svg width="24" height="24" viewBox="0 0 24 24" fill="none" xmlns="http://www.w3.org/2000/svg">
<path fill-rule="evenodd" clip-rule="evenodd" d="M19.2069 5.52129C17.3096 3.62401 14.2336 3.62376 12.336 5.52055L12.3353 5.52129L11.9993 5.856L11.6646 5.52129C9.76704 3.62376 6.69054 3.62376 4.79301 5.52129C3.79314 6.52117 3.32024 7.85008 3.37399 9.15765C3.38477 12.2139 5.58146 14.8654 7.51063 16.6366C8.50726 17.5517 9.49947 18.2923 10.2405 18.8036C10.612 19.0598 10.9227 19.2601 11.1425 19.3973C11.2524 19.466 11.3397 19.519 11.4007 19.5555C11.4312 19.5737 11.4551 19.5879 11.472 19.5978L11.4981 19.6129L11.9999 19.9019L12.5001 19.614L12.502 19.6129L12.5079 19.6094L12.5279 19.5978C12.5448 19.5879 12.5687 19.5737 12.5992 19.5555C12.6601 19.519 12.7475 19.466 12.8574 19.3973C13.0771 19.2601 13.3879 19.0598 13.7593 18.8036C14.5004 18.2923 15.4926 17.5517 16.4892 16.6366C18.4184 14.8654 20.6151 12.2138 20.6259 9.15761C20.6796 7.85005 20.2067 6.52115 19.2069 5.52129Z" fill="currentcolor"/>
</svg>
