<svg width="24" height="24" viewBox="0 0 24 24" fill="none" xmlns="http://www.w3.org/2000/svg">
<path d="M21.5 21C21.5 22.3807 20.3807 23.5 19 23.5C17.6193 23.5 16.5 22.3807 16.5 21C16.5 19.6193 17.6193 18.5 19 18.5C20.3807 18.5 21.5 19.6193 21.5 21Z" fill="#0A8A00"/>
<path fill-rule="evenodd" clip-rule="evenodd" d="M20 2H4V22H14.6115C14.5385 21.6784 14.5 21.3437 14.5 21C14.5 20.6563 14.5385 20.3216 14.6115 20H6V4H18V16.6115C18.3216 16.5385 18.6563 16.5 19 16.5C19.3437 16.5 19.6784 16.5385 20 16.6115V2ZM8 6H16V8H8V6ZM13 10H8V12H13V10Z" fill="currentcolor"/>
</svg>
