<svg width="24" height="24" viewBox="0 0 24 24" fill="none" xmlns="http://www.w3.org/2000/svg">
<path d="M10.699 14.1581V13.5013C10.699 12.8931 10.8267 12.3822 11.0821 11.9686C11.3376 11.5551 11.7755 11.1233 12.3958 10.6732C12.9432 10.284 13.3324 9.94945 13.5635 9.66968C13.8068 9.37775 13.9285 9.03716 13.9285 8.64792C13.9285 8.25868 13.7825 7.96674 13.4906 7.77212C13.2108 7.56534 12.8155 7.46195 12.3046 7.46195C11.7937 7.46195 11.2889 7.54101 10.7902 7.69914C10.2915 7.85727 9.78059 8.07014 9.25755 8.33774L8.29053 6.38545C8.88655 6.05703 9.53124 5.78942 10.2246 5.58264C10.9179 5.37585 11.6781 5.27246 12.5053 5.27246C13.7703 5.27246 14.7495 5.57656 15.4428 6.18475C16.1483 6.79294 16.5011 7.56534 16.5011 8.50195C16.5011 9.00067 16.422 9.43248 16.2639 9.7974C16.1058 10.1623 15.8686 10.5029 15.5523 10.8192C15.2361 11.1233 14.8407 11.4517 14.3664 11.8044C14.0136 12.072 13.7399 12.2971 13.5453 12.4795C13.3507 12.6498 13.2169 12.8262 13.1439 13.0086C13.0831 13.1789 13.0527 13.3857 13.0527 13.629V14.1581H10.699ZM10.407 17.2052C10.407 16.6456 10.5591 16.2564 10.8632 16.0374C11.1673 15.8063 11.5383 15.6908 11.9762 15.6908C12.4019 15.6908 12.7668 15.8063 13.0709 16.0374C13.375 16.2564 13.527 16.6456 13.527 17.2052C13.527 17.7404 13.375 18.1296 13.0709 18.3729C12.7668 18.604 12.4019 18.7196 11.9762 18.7196C11.5383 18.7196 11.1673 18.604 10.8632 18.3729C10.5591 18.1296 10.407 17.7404 10.407 17.2052Z" fill="currentcolor"/>
</svg>
