<svg width="24" height="24" viewBox="0 0 24 24" fill="none" xmlns="http://www.w3.org/2000/svg">
<path fill-rule="evenodd" clip-rule="evenodd" d="M20 12C20 16.4183 16.4183 20 12 20C7.58172 20 4 16.4183 4 12C4 7.58172 7.58172 4 12 4C16.4183 4 20 7.58172 20 12ZM22 12C22 17.5228 17.5228 22 12 22C6.47715 22 2 17.5228 2 12C2 6.47715 6.47715 2 12 2C17.5228 2 22 6.47715 22 12ZM10.7925 13.1243V13.6131H12.5442V13.2193C12.5442 13.0383 12.5668 12.8844 12.6121 12.7576C12.6664 12.6219 12.766 12.4906 12.9109 12.3638C13.0557 12.2281 13.2594 12.0606 13.5219 11.8614C13.875 11.5989 14.1692 11.3544 14.4046 11.1281C14.64 10.8927 14.8165 10.6393 14.9342 10.3677C15.0519 10.0961 15.1107 9.77471 15.1107 9.40355C15.1107 8.70647 14.8482 8.13161 14.3231 7.67897C13.8071 7.22632 13.0783 7 12.1368 7C11.5212 7 10.9554 7.07695 10.4394 7.23085C9.9234 7.38475 9.44359 7.58391 9 7.82834L9.71971 9.28133C10.109 9.08217 10.4892 8.92374 10.8604 8.80605C11.2315 8.68837 11.6072 8.62952 11.9875 8.62952C12.3677 8.62952 12.6619 8.70647 12.8701 8.86037C13.0874 9.00522 13.196 9.22249 13.196 9.51218C13.196 9.80187 13.1055 10.0554 12.9244 10.2726C12.7524 10.4808 12.4627 10.7298 12.0554 11.0195C11.5937 11.3544 11.2678 11.6758 11.0776 11.9836C10.8875 12.2914 10.7925 12.6716 10.7925 13.1243ZM10.9147 15.0118C10.6884 15.1748 10.5752 15.4645 10.5752 15.8809C10.5752 16.2792 10.6884 16.5689 10.9147 16.75C11.141 16.922 11.4171 17.008 11.743 17.008C12.0599 17.008 12.3315 16.922 12.5578 16.75C12.7841 16.5689 12.8973 16.2792 12.8973 15.8809C12.8973 15.4645 12.7841 15.1748 12.5578 15.0118C12.3315 14.8398 12.0599 14.7538 11.743 14.7538C11.4171 14.7538 11.141 14.8398 10.9147 15.0118Z" fill="currentcolor"/>
</svg>
