<svg width="24" height="24" viewBox="0 0 24 24" fill="none" xmlns="http://www.w3.org/2000/svg">
<path fill-rule="evenodd" clip-rule="evenodd" d="M19.1886 12.6168L17.5016 13.5918L18.8256 15.9088C19.3566 16.8398 18.9156 17.6008 17.8436 17.6008H14.9216V15.6518L12.0006 18.5758L14.9216 21.4998V19.5508H17.8436C19.0666 19.5508 20.0796 19.0158 20.6206 18.0828C21.1616 17.1498 21.1236 16.0048 20.5156 14.9418L19.1886 12.6168ZM5.17455 15.9088L6.47955 13.6238L8.13156 14.5778L7.06155 10.5838L3.07155 11.6538L4.79255 12.6488L3.48455 14.9418C2.87655 16.0048 2.83855 17.1498 3.37955 18.0828C3.92055 19.0158 4.93355 19.5508 6.15655 19.5508H10.0516V17.6008H6.15655C5.08455 17.6008 4.64355 16.8398 5.17455 15.9088ZM7.20956 8.41576L9.34256 4.67976C9.95256 3.61276 10.9206 2.99976 12.0006 2.99976C13.0796 2.99976 14.0476 3.61276 14.6576 4.67976L16.7736 8.38576L18.4876 7.39576L17.4176 11.3898L13.4266 10.3198L15.0856 9.36076L12.9666 5.64776C12.7006 5.18176 12.3506 4.94976 12.0006 4.94976C11.6496 4.94976 11.2996 5.18176 11.0336 5.64776L8.89656 9.39076L7.20956 8.41576Z" fill="currentcolor"/>
</svg>
