<svg width="24" height="24" viewBox="0 0 24 24" fill="none" xmlns="http://www.w3.org/2000/svg">
<path fill-rule="evenodd" clip-rule="evenodd" d="M11.13 3L2.34668 18.5L3.2167 19.993H20.7834L21.6534 18.5L12.8701 3H11.13ZM19.0673 17.993H4.93276L12 5.52136L19.0673 17.993ZM11.3386 14.1723H12.6799L12.9617 8.79562H11.0568L11.3386 14.1723ZM11.316 15.3333C11.1282 15.4686 11.0343 15.709 11.0343 16.0547C11.0343 16.3854 11.1282 16.6258 11.316 16.7761C11.5039 16.9189 11.7331 16.9903 12.0036 16.9903C12.2666 16.9903 12.4921 16.9189 12.6799 16.7761C12.8678 16.6258 12.9617 16.3854 12.9617 16.0547C12.9617 15.709 12.8678 15.4686 12.6799 15.3333C12.4921 15.1905 12.2666 15.1191 12.0036 15.1191C11.7331 15.1191 11.5039 15.1905 11.316 15.3333Z" fill="currentcolor"/>
</svg>
