<svg width="24" height="24" viewBox="0 0 24 24" fill="none" xmlns="http://www.w3.org/2000/svg">
<path fill-rule="evenodd" clip-rule="evenodd" d="M7.99609 10C7.99609 7.79086 9.78695 6 11.9961 6C14.2052 6 15.9961 7.79086 15.9961 10H12.0001H7.99609ZM5.99609 10C5.99609 6.68629 8.68239 4 11.9961 4C15.3098 4 17.9961 6.68629 17.9961 10H18.0001H19.1328H20V12H18.8828L17.9923 19.124L17.8828 20H17.0001H12H7H6.11722L6.00772 19.124L5.11722 12H4V10H4.86722H5.99609ZM12.0001 12H16.8673L16.1173 18H12H7.88278L7.13278 12H12.0001Z" fill="currentcolor"/>
</svg>
