<svg width="24" height="24" viewBox="0 0 24 24" fill="none" xmlns="http://www.w3.org/2000/svg">
<path fill-rule="evenodd" clip-rule="evenodd" d="M20.0039 12.0039C20.0039 16.4243 16.4204 20.0078 12 20.0078C7.57956 20.0078 3.99609 16.4243 3.99609 12.0039C3.99609 7.58347 7.57956 4 12 4C16.4204 4 20.0039 7.58347 20.0039 12.0039ZM22.0039 12.0039C22.0039 17.5289 17.525 22.0078 12 22.0078C6.475 22.0078 1.99609 17.5289 1.99609 12.0039C1.99609 6.4789 6.475 2 12 2C17.525 2 22.0039 6.4789 22.0039 12.0039ZM10.9961 6.00781V11.8255L7.31225 15.2782L8.67994 16.7374L12.6799 12.9884L12.9961 12.6921V12.2588V6.00781H10.9961Z" fill="currentcolor"/>
</svg>
