<svg width="24" height="24" viewBox="0 0 24 24" fill="none" xmlns="http://www.w3.org/2000/svg">
<path fill-rule="evenodd" clip-rule="evenodd" d="M13.999 6H0.99707V4H15.999V7.00001L19.0236 7L23.0029 12.6848V18H20.3462C19.9244 19.3056 18.699 20.25 17.2529 20.25C15.8069 20.25 14.5815 19.3056 14.1597 18H10.2553C9.83349 19.3056 8.60804 20.25 7.16203 20.25C5.71601 20.25 4.49056 19.3056 4.06878 18H0.999016V13H2.99902V16H4.06877C4.49054 14.6944 5.716 13.75 7.16203 13.75C8.60805 13.75 9.83351 14.6944 10.2553 16H13.999V6ZM15.999 14.0007C16.3849 13.8392 16.8085 13.75 17.2529 13.75C18.699 13.75 19.9244 14.6944 20.3462 16H21.0029V13.3152L17.9823 9L15.999 9.00001V14.0007ZM16.0029 17C16.0029 16.3096 16.5626 15.75 17.2529 15.75C17.9433 15.75 18.5029 16.3096 18.5029 17C18.5029 17.6903 17.9433 18.25 17.2529 18.25C16.5626 18.25 16.0029 17.6903 16.0029 17ZM7.16203 15.75C6.47167 15.75 5.91203 16.3096 5.91203 17C5.91203 17.6903 6.47167 18.25 7.16203 18.25C7.85238 18.25 8.41203 17.6903 8.41203 17C8.41203 16.3096 7.85238 15.75 7.16203 15.75Z" fill="currentcolor"/>
<path d="M7.99707 9H0.99707V7H7.99707V9Z" fill="currentcolor"/>
<path d="M7.99707 12H0.99707V10H7.99707V12Z" fill="currentcolor"/>
</svg>
