<svg width="24" height="24" viewBox="0 0 24 24" fill="none" xmlns="http://www.w3.org/2000/svg">
<path fill-rule="evenodd" clip-rule="evenodd" d="M8.99976 12.6404V20H6.99976V4H8.99976V4.95698C10.0203 4.97515 11.3849 5.10174 12.9834 5.50003C14.2444 5.81423 15.2398 5.85453 16 5.77498C17.3967 5.62884 18 5.07819 18 5.07819V13C18 13 16.4305 14.84 12.9834 13.3627C12.2796 13.061 11.6138 12.8707 10.9998 12.7588C10.6649 12.6978 10.3454 12.6601 10.0436 12.6404C9.66668 12.6158 9.31727 12.6193 8.99976 12.6404ZM16 11.8812C15.6225 11.9705 14.909 12.012 13.7713 11.5244C11.9442 10.7413 10.2955 10.5685 8.99976 10.6369V6.95734C9.88371 6.97545 11.0833 7.08775 12.4999 7.4407C13.8708 7.78228 15.0328 7.85968 16 7.78326V11.8812Z" fill="currentcolor"/>
</svg>
