<svg width="24" height="24" viewBox="0 0 24 24" fill="none" xmlns="http://www.w3.org/2000/svg">
<path fill-rule="evenodd" clip-rule="evenodd" d="M16.8907 8.52346C17.4056 9.2464 17.7641 10.0883 17.917 11H20V13H17.917C17.7641 13.9117 17.4055 14.7537 16.8907 15.4766L18.3638 16.9498L16.9496 18.364L15.4765 16.8908C14.7535 17.4056 13.9116 17.7641 13 17.917V20H11V17.917C10.0883 17.7641 9.2464 17.4056 8.52347 16.8907L7.05037 18.3638L5.63616 16.9496L7.10925 15.4765C6.59444 14.7536 6.23591 13.9117 6.08296 13H4V11H6.08296C6.23591 10.0883 6.59446 9.24634 7.1093 8.52339L5.63616 7.05025L7.05037 5.63603L8.52354 7.1092C9.24645 6.59441 10.0884 6.2359 11 6.08296V4H13V6.08296C13.9117 6.23591 14.7536 6.59444 15.4765 7.10925L16.9496 5.63619L18.3638 7.0504L16.8907 8.52346ZM12 16C14.2091 16 16 14.2091 16 12C16 9.79086 14.2091 8 12 8C9.79086 8 8 9.79086 8 12C8 14.2091 9.79086 16 12 16Z" fill="currentcolor"/>
</svg>
