<svg width="24" height="24" viewBox="0 0 24 24" fill="none" xmlns="http://www.w3.org/2000/svg">
<path fill-rule="evenodd" clip-rule="evenodd" d="M10.1805 6.60349C10.2758 6.38567 10.3976 6.24534 10.5402 6.14741C10.6618 6.06638 10.8437 6 11.138 6H12.8582C13.1525 6 13.3343 6.06638 13.4559 6.1474C13.5985 6.24533 13.7203 6.38566 13.8156 6.60349C13.9153 6.83107 13.9785 7.12285 13.9785 7.5V8V9H10.0176V8V7.5C10.0176 7.12285 10.0809 6.83107 10.1805 6.60349ZM8.01758 9V8V7.5C8.01758 6.89889 8.11887 6.32563 8.34837 5.8014C8.58155 5.26878 8.93567 4.82073 9.41641 4.49302L9.42155 4.48951L9.42157 4.48952C9.93294 4.14557 10.5228 4 11.138 4H12.8582C13.4733 4 14.0632 4.14557 14.5746 4.48952L14.5797 4.493L14.5797 4.49302C15.0605 4.82073 15.4146 5.26877 15.6478 5.8014C15.8773 6.32563 15.9785 6.89889 15.9785 7.5V8V9H17H18V10V19V20H17H7H6V19V10V9H7H8.01758ZM8 11V18H16V11H8Z" fill="currentcolor"/>
</svg>
