<svg width="24" height="24" viewBox="0 0 24 24" fill="none" xmlns="http://www.w3.org/2000/svg">
<path fill-rule="evenodd" clip-rule="evenodd" d="M13.9804 15.3946C12.9443 16.1448 11.6705 16.5871 10.2935 16.5871C6.81771 16.5871 4 13.7694 4 10.2935C4 6.81771 6.81771 4 10.2935 4C13.7694 4 16.5871 6.81771 16.5871 10.2935C16.5871 11.6705 16.1448 12.9443 15.3946 13.9804L19.9962 18.582L18.582 19.9962L13.9804 15.3946ZM14.5871 10.2935C14.5871 12.6648 12.6648 14.5871 10.2935 14.5871C7.92228 14.5871 6 12.6648 6 10.2935C6 7.92228 7.92228 6 10.2935 6C12.6648 6 14.5871 7.92228 14.5871 10.2935Z" fill="currentcolor"/>
</svg>
