<svg width="24" height="24" viewBox="0 0 24 24" fill="none" xmlns="http://www.w3.org/2000/svg">
<path fill-rule="evenodd" clip-rule="evenodd" d="M13.2803 14.5871C15.6516 14.5871 17.5739 12.6648 17.5739 10.2935C17.5739 7.92228 15.6516 6 13.2803 6C10.9091 6 8.98682 7.92228 8.98682 10.2935C8.98682 12.6648 10.9091 14.5871 13.2803 14.5871ZM13.2803 16.5871C14.6574 16.5871 15.9311 16.1448 16.9672 15.3946L21.5688 19.9962L22.983 18.582L18.3814 13.9804C19.1316 12.9443 19.5739 11.6705 19.5739 10.2935C19.5739 6.81771 16.7562 4 13.2803 4C9.80453 4 6.98682 6.81771 6.98682 10.2935C6.98682 13.7694 9.80453 16.5871 13.2803 16.5871ZM7.96739 4.99988C7.38876 5.58059 6.90472 6.25561 6.54032 6.99988H0.986816V4.99988H7.96739ZM5.89144 8.99988C5.81836 9.42014 5.78027 9.85241 5.78027 10.2936C5.78027 10.5318 5.79138 10.7674 5.81309 10.9999H0.986816V8.99988H5.89144ZM7.44036 14.9999C6.9579 14.402 6.56539 13.7284 6.2834 12.9999H0.986816V14.9999H7.44036Z" fill="currentcolor"/>
</svg>
