<svg width="24" height="24" viewBox="0 0 24 24" fill="none" xmlns="http://www.w3.org/2000/svg">
<path fill-rule="evenodd" clip-rule="evenodd" d="M3.88899 12.3746C1.74111 14.5225 1.74111 18.0049 3.88899 20.1528C6.03687 22.3006 9.51928 22.3006 11.6672 20.1528L20.8596 10.9604C23.0074 8.81249 23.0074 5.33009 20.8596 3.1822C18.7117 1.03432 15.2293 1.03432 13.0814 3.1822L3.88899 12.3746ZM14.4956 4.59642L12.7958 6.29616L17.7456 11.2459L19.4453 9.54616C20.8122 8.17933 20.8122 5.96325 19.4453 4.59642C18.0785 3.22958 15.8624 3.22958 14.4956 4.59642ZM8.29584 10.7962L11.3816 7.71038L16.3314 12.6601L13.2456 15.7459L8.29584 10.7962ZM6.88163 12.2104L5.3032 13.7888C3.93637 15.1556 3.93637 17.3717 5.3032 18.7386C6.67004 20.1054 8.88612 20.1054 10.253 18.7386L11.8314 17.1601L6.88163 12.2104Z" fill="currentcolor"/>
</svg>
