<svg width="24" height="24" viewBox="0 0 24 24" fill="none" xmlns="http://www.w3.org/2000/svg">
<path d="M14.2999 3.63846L9.29988 7.13846L8.15296 5.5L13.153 2L14.2999 3.63846Z" fill="currentcolor"/>
<path d="M20.2429 6.89213L16.7463 11.8945L15.107 10.7487L18.6036 5.74632L20.2429 6.89213Z" fill="currentcolor"/>
<path d="M19.1518 18.1513L22.0871 12.8002L20.3336 11.8383L17.3983 17.1894L19.1518 18.1513Z" fill="currentcolor"/>
<path d="M12.9276 8.68925L13.9745 15.1816L12 15.5L10.9531 9.00764L12.9276 8.68925Z" fill="currentcolor"/>
<path d="M11.1923 22.1381L15.8613 18.8919L14.7196 17.2498L10.0506 20.496L11.1923 22.1381Z" fill="currentcolor"/>
<path d="M4.45284 7.14453L8.64732 11.5781L7.19448 12.9526L3 8.51903L4.45284 7.14453Z" fill="currentcolor"/>
<path d="M9.22642 15.3192L3.22642 15.3192L3.22642 17.3192L9.22642 17.3192L9.22642 15.3192Z" fill="currentcolor"/>
</svg>
