<svg width="24" height="24" viewBox="0 0 24 24" fill="none" xmlns="http://www.w3.org/2000/svg">
<path d="M12.8516 7.54107V5H10.8516V7.54107C10.1531 7.59869 9.47163 7.71613 8.81224 7.88824L7.18361 5.4453L5.51951 6.5547L6.86959 8.57982C4.29565 9.756 2.20991 11.8154 1 14.3705L2.7431 15.3666C4.31594 11.9062 7.80275 9.5 11.8515 9.5C15.9004 9.5 19.3872 11.9062 20.96 15.3666L22.7031 14.3706C21.4932 11.8155 19.4075 9.75601 16.8335 8.57983L18.1836 6.5547L16.5195 5.4453L14.8909 7.88825C14.2315 7.71613 13.55 7.5987 12.8516 7.54107Z" fill="currentcolor"/>
<path fill-rule="evenodd" clip-rule="evenodd" d="M11.8516 19C14.0607 19 15.8516 17.2091 15.8516 15C15.8516 12.7909 14.0607 11 11.8516 11C9.64242 11 7.85156 12.7909 7.85156 15C7.85156 17.2091 9.64242 19 11.8516 19ZM11.8516 17C12.9561 17 13.8516 16.1046 13.8516 15C13.8516 13.8954 12.9561 13 11.8516 13C10.747 13 9.85156 13.8954 9.85156 15C9.85156 16.1046 10.747 17 11.8516 17Z" fill="currentcolor"/>
</svg>
