<svg width="24" height="24" viewBox="0 0 24 24" fill="none" xmlns="http://www.w3.org/2000/svg">
<path fill-rule="evenodd" clip-rule="evenodd" d="M11 5V1H13V5H11ZM1 11H5V13H1V11ZM23 13H19V11H23V13ZM11 23V19H13V23H11ZM7.75736 6.34315L6.34314 7.75736L3.51472 4.92893L4.92893 3.51472L7.75736 6.34315ZM4.92893 20.4853L3.51472 19.0711L6.34314 16.2426L7.75736 17.6569L4.92893 20.4853ZM17.6569 7.75736L16.2426 6.34315L19.0711 3.51472L20.4853 4.92893L17.6569 7.75736ZM20.4853 19.0711L19.0711 20.4853L16.2426 17.6569L17.6569 16.2426L20.4853 19.0711Z" fill="currentcolor"/>
</svg>
