<svg width="24" height="24" viewBox="0 0 24 24" fill="none" xmlns="http://www.w3.org/2000/svg">
<path fill-rule="evenodd" clip-rule="evenodd" d="M5 6H19V18H5V6ZM3 4H5H19H21V6V18V20H19H5H3V18V6V4ZM7.13344 14.4414V15.4587H11.8369V14.2283H8.90547V14.1605L9.77263 13.3273C10.1685 12.9527 10.5047 12.6104 10.7812 12.3003C11.064 11.9903 11.2776 11.6771 11.4221 11.3606C11.5729 11.0441 11.6483 10.6953 11.6483 10.3143C11.6483 9.95904 11.5604 9.64256 11.3844 9.36483C11.2148 9.08065 10.9697 8.85782 10.6492 8.69635C10.335 8.52842 9.958 8.44446 9.51814 8.44446C9.11598 8.44446 8.77037 8.4929 8.48132 8.58978C8.19855 8.6802 7.94719 8.79969 7.72726 8.94824C7.50733 9.09679 7.30311 9.25826 7.11459 9.43265L7.8875 10.3724C8.1577 10.1463 8.41534 9.97196 8.6604 9.84924C8.90547 9.72652 9.15682 9.66517 9.41446 9.66517C9.66581 9.66517 9.86375 9.73298 10.0083 9.86862C10.1591 10.0043 10.2345 10.2109 10.2345 10.4887C10.2345 10.7147 10.1874 10.9279 10.0931 11.1281C9.99885 11.3218 9.84804 11.5414 9.64067 11.7869C9.43331 12.0258 9.15996 12.3262 8.82064 12.6879L7.13344 14.4414ZM15.8555 11.2831C15.5351 11.1216 15.1706 11.0409 14.7622 11.0409C14.5422 11.0409 14.3694 11.0538 14.2438 11.0796C14.1244 11.099 14.0113 11.1184 13.9044 11.1378L14.027 9.78142H16.4305V8.54134H12.7828L12.5283 12.0678L13.0938 12.3779C13.2195 12.3456 13.3766 12.3133 13.5651 12.281C13.7536 12.2422 13.9359 12.2228 14.1118 12.2228C15.0104 12.2228 15.4597 12.5716 15.4597 13.2692C15.4597 13.6438 15.3466 13.9215 15.1203 14.1023C14.9004 14.2767 14.5799 14.3639 14.1589 14.3639C13.8699 14.3639 13.562 14.3219 13.2352 14.238C12.9085 14.1476 12.6288 14.041 12.3963 13.9183V15.1777C12.6288 15.3004 12.899 15.3941 13.2069 15.4587C13.5211 15.5233 13.8542 15.5556 14.2061 15.5556C15.0921 15.5556 15.7613 15.3424 16.2137 14.9162C16.6662 14.4834 16.8924 13.8924 16.8924 13.1432C16.8924 12.6846 16.7981 12.3003 16.6096 11.9903C16.4274 11.6803 16.176 11.4446 15.8555 11.2831Z" fill="currentcolor"/>
</svg>
