<svg width="24" height="24" viewBox="0 0 24 24" fill="none" xmlns="http://www.w3.org/2000/svg">
    <path fill-rule="evenodd" clip-rule="evenodd" d="M15 4H21C21.5523 4 22 4.44772 22 5V19C22 19.5523 21.5523 20 21 20H15C14.4477 20 14 19.5523 14 19V5C14 4.44772 14.4477 4 15 4ZM12 5C12 3.34315 13.3431 2 15 2H21C22.6569 2 24 3.34315 24 5V19C24 20.6569 22.6569 22 21 22H15C13.3431 22 12 20.6569 12 19V5ZM10.2999 12.709L11.007 12.002L10.2999 11.2948L6.00567 7L4.59137 8.41412L7.17482 10.9979L1 11V13L7.18241 12.9979L4.59076 15.5894L6.00493 17.0037L10.2999 12.709ZM19 18C19 18.5523 18.5523 19 18 19C17.4477 19 17 18.5523 17 18C17 17.4477 17.4477 17 18 17C18.5523 17 19 17.4477 19 18ZM21 5H15V7H21V5Z" fill="currentcolor"/>
</svg>
