<svg width="24" height="24" viewBox="0 0 24 24" fill="none" xmlns="http://www.w3.org/2000/svg">
<path fill-rule="evenodd" clip-rule="evenodd" d="M20 13.5563V4H18V13.5563H20ZM11.4712 20.0001C12.1254 20.0001 12.7382 19.6802 13.1122 19.1434L17 13.5629L17 4.00012L6.43381 4.00012L3.28502 9.24811C3.09852 9.55894 3 9.91462 3 10.2771V12.0001C3 13.1047 3.89543 14.0001 5 14.0001H8.93282L8.681 17.8703C8.60596 19.0235 9.52111 20.0001 10.6768 20.0001H11.4712ZM11.4712 18.0001L10.6768 18.0001L11.0672 12.0001L5 12.0001V10.2771L7.56619 6.00012L15 6.00012V12.9349L11.4712 18.0001Z" fill="currentcolor"/>
</svg>
