<svg width="72" height="30" viewBox="0 0 72 30" fill="none" xmlns="http://www.w3.org/2000/svg">
<path d="M71.9897 30H0V0H72L71.9897 30Z" fill="#0058A3"/>
<path d="M1.40332 15.0001C1.40332 22.2514 15.9003 28.2746 36.0001 28.2746C56.0998 28.2746 70.5865 22.2619 70.5865 15.0001C70.5865 7.73829 56.0895 1.72559 35.9897 1.72559C15.89 1.72559 1.40332 7.74888 1.40332 15.0001Z" fill="#FFD800"/>
<path d="M33.9568 19.2556C34.1838 19.5944 34.4314 19.912 34.7204 20.1978H26.9302C26.9302 19.8802 26.6413 19.2345 26.3008 18.7264C25.9603 18.2182 24.1855 15.4342 24.1855 15.4342V19.2556C24.1855 19.5732 24.1855 19.8802 24.3403 20.1978H17.8502C18.005 19.8802 18.005 19.5732 18.005 19.2556V10.1731C18.005 9.8555 18.005 9.54852 17.8502 9.23094H24.3403C24.1855 9.54852 24.1855 9.8555 24.1855 10.1731V14.1321C24.1855 14.1321 26.2595 11.3693 26.7341 10.7129C27.0952 10.226 27.5389 9.53793 27.5389 9.22036H34.3076C33.8433 9.53793 33.3274 10.1096 32.9044 10.6388C32.5329 11.1046 30.428 13.7405 30.428 13.7405C30.428 13.7405 33.5441 18.6311 33.9568 19.2556ZM35.9895 10.1731V19.2556C35.9895 19.5732 35.9895 19.8802 35.8347 20.1978H48.3609V17.1597C48.0514 17.3185 47.7522 17.3185 47.4426 17.3185H42.1701V15.8788H47.2363V13.5711H42.1701V12.1314H47.4426C47.7522 12.1314 48.0514 12.1314 48.3609 12.2796V9.24153H35.845C35.9895 9.54851 35.9895 9.8555 35.9895 10.1731ZM65.7264 19.2556C65.8296 19.605 66.005 19.9225 66.232 20.1978H59.4426C59.4736 19.8802 59.3601 19.5732 59.2363 19.2556C59.2363 19.2556 59.1331 19.0016 58.9886 18.6311L58.9267 18.4723H55.0162L54.9542 18.6311C54.9542 18.6311 54.8407 18.9381 54.7376 19.2556C54.6344 19.5732 54.5209 19.8802 54.5621 20.1978H49.207C49.4237 19.9225 49.5888 19.605 49.692 19.2556C49.8674 18.7581 52.6533 10.8823 52.9009 10.1731C53.0144 9.8555 53.1279 9.54852 53.0867 9.23094H62.1357C62.0531 9.54852 62.2182 9.8555 62.3317 10.1731C62.6 10.8717 65.4994 18.6417 65.7264 19.2556ZM58.0703 16.154C57.575 14.8308 57.1726 13.7299 57.121 13.6134C57.0385 13.3806 56.9663 13.1371 56.9147 12.8936C56.8734 13.1371 56.8012 13.3806 56.729 13.6134C56.698 13.7193 56.2956 14.8308 55.8313 16.154H58.0703ZM14.7754 9.23094H7.71777C7.87255 9.54852 7.87255 9.8555 7.87255 10.1731V19.2556C7.87255 19.5732 7.87255 19.8802 7.71777 20.1978H14.7754C14.6206 19.8802 14.6206 19.5732 14.6206 19.2556V10.1731C14.6206 9.8555 14.6206 9.53793 14.7754 9.23094ZM63.5596 10.099C63.5286 9.32621 64.1168 8.68048 64.87 8.65931C64.9009 8.65931 64.9319 8.65931 64.9628 8.65931C65.7264 8.64873 66.3558 9.27329 66.3661 10.046C66.3661 10.0672 66.3661 10.0778 66.3661 10.099C66.3867 10.8929 65.778 11.5598 64.9938 11.581C64.2199 11.6021 63.5699 10.9776 63.5493 10.1731C63.5596 10.1519 63.5596 10.1201 63.5596 10.099ZM63.8382 10.099C63.8382 10.7341 64.3334 11.2528 64.9628 11.2634C65.5819 11.2634 66.0875 10.7553 66.0978 10.1096C66.0978 9.47442 65.6026 8.95571 64.9732 8.94513C64.3747 8.92396 63.8691 9.40032 63.8485 10.0143C63.8382 10.046 63.8382 10.0672 63.8382 10.099ZM64.6843 10.9564H64.4366V9.23094H65.066C65.3652 9.24153 65.5922 9.485 65.5922 9.79199C65.5922 10.0037 65.4787 10.1942 65.293 10.3001L65.6542 10.967H65.3756L65.0454 10.353H64.6843V10.9564ZM64.6843 10.099H65.0247C65.1898 10.1096 65.3343 9.98253 65.3343 9.81316C65.3446 9.64379 65.2208 9.49559 65.0557 9.49559C65.0454 9.49559 65.0351 9.49559 65.0247 9.49559H64.6843V10.099Z" fill="#0058A3"/>
</svg>
